<?xml version="1.0" encoding="UTF-8" standalone="no"?>
<!DOCTYPE svg PUBLIC "-//W3C//DTD SVG 1.1//EN" "http://www.w3.org/Graphics/SVG/1.1/DTD/svg11.dtd">
<svg width="100%" height="100%" viewBox="0 0 512 512" version="1.1" xmlns="http://www.w3.org/2000/svg" xmlns:xlink="http://www.w3.org/1999/xlink" xml:space="preserve" xmlns:serif="http://www.serif.com/" style="fill-rule:evenodd;clip-rule:evenodd;stroke-linecap:round;stroke-linejoin:round;stroke-miterlimit:1.5;">
    <g transform="matrix(1,0,0,1,-93.349604,-132.616578)">
        <path d="M134.502,370.215L134.502,339.583C134.502,337.009 132.441,334.952 130.126,334.952C127.683,334.952 125.75,337.013 125.75,339.583L125.75,409.852C125.75,412.168 127.679,414.228 130.126,414.228C132.441,414.228 134.502,412.168 134.502,409.852L134.502,378.969L175.556,378.969L175.556,409.857C175.556,412.172 177.616,414.234 180.06,414.234C182.376,414.234 184.436,412.172 184.436,409.857L184.436,339.583C184.436,337.009 182.376,334.952 180.06,334.952C177.613,334.952 175.556,337.013 175.556,339.583L175.556,370.215L134.502,370.215Z" style="fill:white;fill-rule:nonzero;"/>
        <path d="M226.002,414.221C234.371,414.221 241.961,410.748 247.369,405.082L247.369,410.099C247.369,412.419 249.171,414.216 251.488,414.216C253.675,414.216 255.473,412.419 255.473,410.099L255.473,384.75C255.473,368.406 242.221,355.279 226.002,355.279C209.789,355.279 196.531,368.406 196.531,384.75C196.531,401.096 209.789,414.221 226.002,414.221ZM226.008,363.256C237.848,363.256 247.375,372.782 247.375,384.75C247.375,396.591 237.848,406.117 226.008,406.117C214.167,406.117 204.641,396.591 204.641,384.75C204.641,372.782 214.167,363.256 226.008,363.256Z" style="fill:white;fill-rule:nonzero;"/>
        <path d="M267.203,380.891L267.203,410.363C267.203,412.682 269,414.479 271.319,414.479C273.508,414.479 275.31,412.677 275.31,410.363L275.31,380.891C275.31,371.365 283.16,363.388 292.941,363.388C295.13,363.388 296.932,361.586 296.932,359.397C296.932,357.208 295.13,355.279 292.941,355.279C278.784,355.279 267.201,366.735 267.201,380.891L267.203,380.891Z" style="fill:white;fill-rule:nonzero;"/>
        <path d="M301.011,376.768L301.011,410.103C301.011,412.423 302.813,414.221 305.128,414.221C307.317,414.221 309.119,412.423 309.119,410.103L309.119,376.768C309.119,369.436 315.039,363.383 322.377,363.383C329.841,363.383 335.631,369.436 335.631,376.768L335.631,410.103C335.631,412.423 337.433,414.221 339.747,414.221C341.936,414.221 343.866,412.423 343.866,410.103L343.866,376.768C343.608,369.436 349.913,363.383 356.993,363.383C364.455,363.383 370.25,369.436 370.25,376.768L370.25,410.103C370.25,412.423 372.047,414.221 374.367,414.221C376.683,414.221 378.485,412.423 378.485,410.103L378.485,376.768C378.485,364.932 368.833,355.279 356.993,355.279C349.655,355.279 343.221,359.266 339.747,365.19C336.406,359.266 329.841,355.279 322.377,355.279C310.663,355.279 301.01,364.932 301.01,376.768L301.011,376.768Z" style="fill:white;fill-rule:nonzero;"/>
        <path d="M389.094,384.75C389.094,401.096 402.35,414.221 418.564,414.221C434.782,414.221 448.04,401.096 448.04,384.75C448.04,368.406 434.782,355.279 418.564,355.279C402.35,355.279 389.093,368.406 389.093,384.75L389.094,384.75ZM439.931,384.75C439.931,396.591 430.404,406.117 418.564,406.117C406.723,406.117 397.202,396.591 397.202,384.75C397.202,372.782 406.723,363.256 418.564,363.256C430.404,363.256 439.931,372.782 439.931,384.75Z" style="fill:white;fill-rule:nonzero;"/>
        <path d="M458.294,380.891L458.294,410.108C458.294,412.428 460.096,414.225 462.411,414.225C464.6,414.225 466.402,412.428 466.402,410.108L466.402,380.891C466.402,371.365 474.252,363.388 484.032,363.388C493.557,363.388 501.408,371.365 501.408,380.891L501.408,410.108C501.408,412.428 503.338,414.225 505.527,414.225C507.714,414.225 509.643,412.428 509.643,410.108L509.643,380.891C509.648,366.735 498.062,355.279 484.032,355.279C469.875,355.279 458.293,366.735 458.293,380.891L458.294,380.891Z" style="fill:white;fill-rule:nonzero;"/>
        <path d="M529.45,424.26C528.551,422.975 527.134,422.331 525.849,422.331C525.072,422.331 524.433,422.588 523.788,422.975C521.858,424.26 521.214,426.707 522.498,428.636C527.775,436.876 536.915,442.281 547.338,442.281C557.762,442.281 567.156,436.876 572.306,428.636C573.463,426.707 572.949,424.26 571.016,422.975C570.372,422.588 569.599,422.331 568.96,422.331C567.543,422.331 566.253,422.975 565.354,424.26C561.626,430.311 554.93,434.298 547.338,434.298C539.874,434.298 533.181,430.311 529.45,424.26ZM521.728,388.483C521.728,402.638 533.309,414.221 547.338,414.221C561.495,414.221 572.949,402.508 572.949,388.483L572.949,359.266C572.949,357.077 571.147,355.279 568.963,355.279C566.774,355.279 564.972,357.083 564.972,359.266L564.972,388.483C564.972,398.135 556.995,406.112 547.344,406.112C537.69,406.112 529.841,398.135 529.841,388.483L529.841,359.266C529.841,357.077 527.911,355.279 525.853,355.279C523.53,355.279 521.728,357.083 521.728,359.266L521.728,388.483Z" style="fill:white;fill-rule:nonzero;"/>
    </g>
    <g transform="matrix(0.569377,0,0,0.563655,-8.671601,106.281986)">
        <circle cx="166.488" cy="240.038" r="69.626" style="fill:white;fill-opacity:0;stroke:white;stroke-width:3.68px;"/>
    </g>
    <g transform="matrix(0.535666,0,0,0.530282,19.743294,77.371353)">
        <circle cx="166.488" cy="240.038" r="69.626" style="fill:white;fill-opacity:0;stroke:white;stroke-width:3.91px;"/>
    </g>
    <g transform="matrix(0.529383,0,0,0.517439,365.76975,121.781914)">
        <circle cx="166.488" cy="240.038" r="69.626" style="fill:white;fill-opacity:0;stroke:white;stroke-width:3.98px;"/>
    </g>
    <g transform="matrix(0.426569,0,0,0.422282,271.569239,168.733909)">
        <circle cx="166.488" cy="240.038" r="69.626" style="fill:white;fill-opacity:0;stroke:white;stroke-width:4.91px;"/>
    </g>
    <g transform="matrix(0.24422,0,0,0.241765,284.924357,161.136048)">
        <circle cx="166.488" cy="240.038" r="69.626" style="fill:white;fill-opacity:0;stroke:white;stroke-width:8.57px;"/>
    </g>
</svg>
